PathFileType	4	(X/Y/Z)	s03c0102.trc
DataRate	CameraRate	NumFrames	NumMarkers	Units	OrigDataRate	OrigDataStartFrame	OrigNumFrames
200	200	4	52	mm	200	500	2000
Frame#	Time	racr			lacr			c7			jug			rlel			rdr			llel			ldr			s2			lic			ric			lasi			rasi			rpsi			lpsi			rgt			lgt			rth1			rth2			rth3			rth4			rlfc			rmfc			rsh1			rsh2			rsh3			rsh4			rlmal			rmmal			rcal			rtoe			rmt5			rmt1			lth1			lth2			lth4			lth3			llfc			lmfc			lsh1			lsh2			lsh3			lsh4			llmal			lmmal			lcal			ltoe			lmt1			lmt5			SBIKE			LBIKE			RBIKE			
		X1	Y1	Z1	X2	Y2	Z2	X3	Y3	Z3	X4	Y4	Z4	X5	Y5	Z5	X6	Y6	Z6	X7	Y7	Z7	X8	Y8	Z8	X9	Y9	Z9	X10	Y10	Z10	X11	Y11	Z11	X12	Y12	Z12	X13	Y13	Z13	X14	Y14	Z14	X15	Y15	Z15	X16	Y16	Z16	X17	Y17	Z17	X18	Y18	Z18	X19	Y19	Z19	X20	Y20	Z20	X21	Y21	Z21	X22	Y22	Z22	X23	Y23	Z23	X24	Y24	Z24	X25	Y25	Z25	X26	Y26	Z26	X27	Y27	Z27	X28	Y28	Z28	X29	Y29	Z29	X30	Y30	Z30	X31	Y31	Z31	X32	Y32	Z32	X33	Y33	Z33	X34	Y34	Z34	X35	Y35	Z35	X36	Y36	Z36	X37	Y37	Z37	X38	Y38	Z38	X39	Y39	Z39	X40	Y40	Z40	X41	Y41	Z41	X42	Y42	Z42	X43	Y43	Z43	X44	Y44	Z44	X45	Y45	Z45	X46	Y46	Z46	X47	Y47	Z47	X48	Y48	Z48	X49	Y49	Z49	X50	Y50	Z50	X51	Y51	Z51	X52	Y52	Z52	
500	2.5000	503.691712	1412.788031	-100.337854	446.066793	1439.177503	-398.855064	397.288569	1507.111432	-234.196342	426.247119	1336.159062	-249.263863	549.023346	1150.861564	15.508309	750.184336	943.965388	-35.221723	536.283488	1181.964720	-456.692434	745.481851	950.596605	-427.894501	-104.249334	1207.922779	-204.113167	58.231791	1257.447625	-397.288299	67.145879	1228.203071	-25.389505	89.473394	1183.294932	-350.403236	94.567622	1163.451557	-69.966986	-78.006178	1254.573899	-156.201518	-74.208101	1260.589055	-239.466986	9.356358	1114.317670	-18.726831	29.993640	1161.978451	-413.126287	114.589635	989.431498	-5.470758	194.437021	950.340588	-4.377764	244.810976	880.758906	-10.793196	217.713336	977.282828	-14.143679	321.085535	775.912993	-38.769469	322.258329	764.379543	-161.967662	233.959732	632.367882	-20.594400	204.074924	551.245102	-41.627680	137.217120	493.649701	-46.129891	228.683883	538.930577	-67.964906	54.939451	395.876719	-74.221007	85.809541	393.420829	-154.479332	-15.029072	392.898640	-114.313897	222.560572	189.698475	-110.569365	119.874996	254.010998	-44.558439	152.570869	249.152725	-157.226956	152.683382	1067.855132	-434.748819	235.196370	1043.041294	-435.338898	254.202218	1072.735061	-424.920388	296.182241	977.448017	-433.830520	416.673734	909.871013	-415.018765	414.435160	895.038642	-287.218495	356.495607	748.272241	-440.040263	349.604559	664.519539	-421.335112	299.030093	588.878053	-418.500774	377.733585	656.300058	-394.720780	249.838804	470.176509	-404.097597	279.336095	486.141884	-307.356165	187.964020	410.006705	-356.937133	496.505200	450.513384	-362.557583	403.910576	433.660923	-315.474239	379.302659	414.513886	-434.069306	-213.955256	945.019607	-231.694091	-9.801880	80.821625	-433.267771	-9.265615	80.642891	-32.902590	
501	2.5050	504.510702	1412.609665	-100.509525	446.911395	1439.362876	-398.912805	398.357503	1507.132722	-234.375129	427.097576	1336.117908	-249.401084	549.131521	1150.917312	15.806723	750.088922	943.774302	-35.211176	536.266322	1181.817037	-457.060732	745.464407	950.398720	-427.786097	-103.329889	1208.624414	-205.736799	59.662222	1257.426064	-398.007734	67.395354	1228.861767	-26.131486	90.639013	1183.272506	-351.157916	94.897411	1163.987139	-70.380627	-77.501841	1255.328396	-157.368712	-73.186124	1261.124554	-240.651634	9.424344	1115.786929	-19.280891	31.183703	1161.463138	-413.673881	115.216907	991.460416	-5.810128	195.305146	952.957643	-4.624003	246.073729	883.550693	-10.475626	218.328510	979.942490	-14.625487	322.919144	778.572582	-37.717153	324.063532	766.759515	-161.043938	234.685150	635.451352	-19.939834	203.998073	554.728727	-41.182897	136.575282	498.046589	-45.829414	228.419703	542.352981	-67.588007	52.892930	401.086004	-73.985398	83.918485	398.553169	-154.308341	-17.128253	398.225921	-114.228056	219.833135	194.392140	-110.603156	117.356294	258.859184	-44.622357	150.083813	254.019305	-157.192778	153.263052	1066.283739	-434.898292	235.542597	1040.746703	-435.242528	254.892628	1070.231154	-424.566146	295.976482	974.686115	-433.417113	416.084533	905.925677	-413.764651	413.489197	891.638309	-286.484871	356.990615	743.884286	-439.747123	350.830326	659.834344	-420.695847	300.974204	584.070348	-418.580477	379.028148	652.158734	-394.513662	252.594205	464.986272	-404.716418	281.575894	480.732584	-307.777842	190.632812	404.899195	-357.734019	499.095793	445.584211	-362.182608	406.379969	428.638883	-315.475122	382.282369	409.467746	-434.119684	-213.920604	945.040162	-231.729773	-9.787104	80.831946	-433.295432	-9.250289	80.641243	-32.896350	
502	2.5100	505.391308	1412.384191	-100.595288	447.834244	1439.485179	-399.066291	399.432489	1507.054337	-234.681043	428.072338	1335.988980	-249.572853	549.784606	1150.681692	16.225294	750.019795	943.519047	-35.211988	536.257809	1181.600430	-457.540708	745.482492	950.192795	-427.742799	-102.484331	1209.242813	-207.375035	61.036658	1257.413697	-398.738584	67.700458	1229.453554	-26.791005	91.546808	1183.059328	-351.585768	95.307936	1164.674891	-70.818255	-77.064317	1256.160756	-158.538346	-72.282357	1261.651197	-241.811728	9.613458	1117.183148	-19.857696	32.332432	1160.864187	-414.308452	115.856604	993.522567	-6.162107	196.191386	955.488337	-4.818959	247.357165	886.329900	-10.108211	219.088781	982.553394	-15.046892	324.847727	781.353354	-36.635642	326.016838	769.160888	-160.098110	235.524955	638.734664	-19.216049	204.195803	558.299817	-40.341376	135.808073	502.330904	-45.418352	228.165727	545.732726	-67.109103	50.929565	406.245174	-73.826346	82.309997	403.766962	-154.065393	-18.979447	403.844567	-114.266827	217.291338	199.031408	-110.562826	114.998524	263.886964	-44.650552	147.678085	259.066642	-157.360910	153.806240	1064.589037	-435.100758	235.835766	1038.311657	-435.207006	255.266870	1067.753590	-424.788891	295.705923	971.766662	-433.073841	415.177331	902.082601	-413.030125	412.401861	888.139068	-285.958070	357.445568	739.558003	-439.526216	351.958656	655.702878	-421.134039	302.796597	579.082340	-418.770451	380.161500	647.860200	-394.371791	255.174867	459.767878	-405.371865	283.564319	475.730883	-308.299899	193.112918	399.631494	-358.687574	501.579442	440.489803	-361.758874	408.679907	423.563993	-315.453948	385.143599	404.424561	-434.145301	-213.876684	945.067617	-231.790232	-9.783952	80.841564	-433.308419	-9.255029	80.640462	-32.899885	
503	2.5150	506.197238	1412.007937	-100.785589	448.669230	1439.525136	-399.347708	400.440891	1506.977427	-234.918116	428.836793	1335.849897	-249.815268	550.448071	1150.638697	16.829310	750.001640	943.277917	-35.167077	536.287102	1181.247262	-458.083393	745.454543	949.992354	-427.574338	-101.784284	1209.714263	-208.875041	62.317324	1257.368265	-399.534838	67.931822	1230.115552	-27.447779	92.432053	1182.661184	-351.950265	95.693592	1165.384251	-71.340171	-76.490523	1256.888320	-159.766891	-71.370439	1262.070822	-243.050959	9.847749	1118.614696	-20.410509	33.320791	1160.139634	-414.891372	116.570641	995.583812	-6.479096	197.123921	958.109604	-5.005942	248.695943	889.192883	-9.693835	219.863932	985.175463	-15.485902	326.869556	784.173529	-35.540914	328.145079	771.509082	-159.103992	236.443504	642.062233	-18.474422	204.174126	562.037820	-39.763871	135.169111	506.738284	-44.996373	228.067244	549.247744	-66.551809	49.324173	411.616161	-73.524722	80.873955	408.947691	-153.773735	-20.681251	409.392744	-114.204935	214.890901	203.834826	-110.506274	112.906294	268.961338	-44.709274	145.667045	264.094105	-157.201015	154.198178	1062.825689	-435.258473	236.106755	1035.769440	-435.153654	255.774096	1065.048710	-424.812150	295.324975	968.671329	-432.626022	414.090090	898.124710	-412.381190	411.441456	883.193229	-286.081402	357.804867	735.090549	-439.304870	352.925289	651.303523	-421.210329	304.338796	574.166253	-419.160059	381.201952	643.515719	-394.143800	257.532808	454.704122	-406.368237	283.599315	469.262846	-310.099941	195.394337	394.239506	-359.846434	504.200537	435.494277	-360.895580	410.774171	418.394935	-315.490676	388.063675	398.630454	-433.057995	-213.844582	945.072935	-231.839751	-9.769952	80.846570	-433.312531	-9.243390	80.648626	-32.905029	
